DataType=double
version=3
OpenSimVersion=4.5-2023-11-26-efcdfd3eb
endheader
time	EMG01_right_gast_med	EMG02_right_glut_max	EMG03_left_gast_med	EMG04_left_glut_max	EMG05_right_glut_med	EMG06_right_bic_fem	EMG07_right_rect_fem	EMG08_right_vast_lat	EMG09_right_vast_med	EMG10_right_tens_fasc_lat	EMG11_left_glut_med	EMG12_left_bic_fem	EMG13_left_rect_fem	EMG14_left_vast_lat	EMG15_left_vast_med	EMG16_left_tens_fasc_lat
0.6899999999999999	125.4923055000816	11.0666136969699	-3.450538898937348	103.3739813905986	32.907992481235	10.90782784538265	9.176097825743573	9.362351183615923	34.44455410973772	17.15227001272395	5.122469907656178	9.272157994575361	1.906167297703367	5.984659518821561	3.392075140520597	97.90492555386567
0.7	129.125795405227	9.858816418092101	-2.845472114143438	101.4875169251453	31.97002065462014	10.73730808349387	9.026748580746089	8.996462746244831	32.39866787908834	16.73996355308422	5.3184229473634	9.993692730405856	2.031179676232358	6.013423078747832	3.05246473941461	97.04315770657223
0.71	132.3719831836626	8.686055994401197	-2.122837334911048	99.30610718604167	31.40068322285848	10.66944440474215	8.87800650644656	8.668612306644617	30.43015933709999	16.42455157005388	5.53425742707143	10.75710063623428	2.174584849955639	6.110929517246895	2.844406559279746	95.87327004429383
0.72	135.195969118288	7.559800568724078	-1.29905478770475	96.86117360892707	31.23027341475219	10.69460238666965	8.730599226426181	8.378676586707353	28.54943243196286	16.21784419046375	5.771085446000789	11.55915678794117	2.335804173713038	6.283032156274515	2.784242843394311	94.43007872996577
0.73	137.5660326496096	6.491459132295208	-0.3903376465363868	94.18605751470815	31.48725238396363	10.80216036988062	8.585226966555002	8.126164135766825	26.76567490805127	16.13029916303319	6.0299288357645	12.39613487094853	2.514126319711456	6.534891570746021	2.887357799630675	92.75310159772232
0.74	139.4541134748009	5.492289574181925	0.5874225732753571	91.31548234313374	32.19773669035639	10.98071704554189	8.442558427564428	7.910246142477522	25.08686096387894	16.17082916282299	6.311683666689953	13.2638027081593	2.708697478609665	6.870842545287062	3.167911672285604	90.88610069338851
0.75	140.8362715227128	4.573307099169043	1.61875542842816	88.28501948010754	33.38493842076507	11.21830819737465	8.303225319716919	7.729788986206616	23.5197583003654	16.34663408282408	6.617085739432115	14.15742248771855	2.918513607932265	7.294268441406728	3.638584595956535	88.87654180762883
0.76	141.6931139642185	3.745192780967376	2.688697211905086	85.13056453539937	35.068570201605	11.50262896527309	8.167815846346562	7.583388320279299	22.0699381660683	16.66306024598437	6.946677848091726	15.07175623121091	3.142415281300898	7.807485868176894	4.310333507949863	86.77496636353945
0.77	142.0101731207706	3.018202025014982	3.782864514545731	81.88782976733573	37.26422985489766	11.82125775290474	8.036867569529671	7.469404489249735	20.74178716188151	17.12348802507393	7.300779604144945	16.00107708657793	3.379085654896757	8.411642415801754	5.192165423103102	84.63427537229155
0.78	141.7782177377095	2.402072704061467	4.887517457692139	78.59185770067202	39.98278104986648	12.16187770617774	7.910860027206641	7.385998896424165	19.53851970503386	17.72924900441532	7.679460583524019	16.9391871214402	3.62705200394951	9.106630046322122	6.290930426959101	82.50893022224538
0.79	140.9934832663866	1.905932726403763	5.989614423724626	75.27656098603052	43.22974720622673	12.51249151878558	7.790207306405023	7.331170683648138	18.46219047200975	18.47957346221466	8.082517451968497	17.87944247955982	3.884691192257727	9.891016542260035	7.611137780805126	80.45408023349381
0.8	139.6578132854938	1.538206840978015	7.076860098454488	71.97429414800975	47.00473659991188	12.8616252031112	7.675250602645488	7.302792849912773	17.51370673776286	19.37156851456398	8.509455529764804	18.81478700444193	4.150239321665481	10.76199718368174	9.154798494293715	78.52463172730086
0.8100000000000001	137.7787102685852	1.306522591361496	8.137748588034112	68.71546375015407	51.30091744481176	13.19851646859277	7.566250660164536	7.29864674372497	16.69284108930109	20.40022683029751	8.959475043465472	19.73779556714992	4.421805664221095	11.71536853382069	10.92129756491178	76.7742773072237
